HIERARCHY
ROOT Hips
{
	OFFSET 0.000000 0.000000 0.000000
	CHANNELS 6 Xposition Yposition Zposition Zrotation Yrotation Xrotation 
	JOINT LHipJoint
	{
		OFFSET 0.000000 0.000000 0.000000
		CHANNELS 3 Zrotation Yrotation Xrotation
		JOINT LeftUpLeg
		{
			OFFSET 1.363060 -1.794630 0.839290
			CHANNELS 3 Zrotation Yrotation Xrotation
			JOINT LeftLeg
			{
				OFFSET 2.448110 -6.726130 0.000000
				CHANNELS 3 Zrotation Yrotation Xrotation
				JOINT LeftFoot
				{
					OFFSET 2.562200 -7.039590 0.000000
					CHANNELS 3 Zrotation Yrotation Xrotation
					JOINT LeftToeBase
					{
						OFFSET 0.157640 -0.433110 2.322550
						CHANNELS 3 Zrotation Yrotation Xrotation
						End Site
						{
							OFFSET 0.000000 0.000000 0.000000
						}
					}
				}
			}
		}
	}
	JOINT RHipJoint
	{
		OFFSET 0.000000 0.000000 0.000000
		CHANNELS 3 Zrotation Yrotation Xrotation
		JOINT RightUpLeg
		{
			OFFSET -1.305520 -1.794630 0.839290
			CHANNELS 3 Zrotation Yrotation Xrotation
			JOINT RightLeg
			{
				OFFSET -2.542530 -6.985550 0.000000
				CHANNELS 3 Zrotation Yrotation Xrotation
				JOINT RightFoot
				{
					OFFSET -2.568260 -7.056230 0.000000
					CHANNELS 3 Zrotation Yrotation Xrotation
					JOINT RightToeBase
					{
						OFFSET -0.164730 -0.452590 2.363150
						CHANNELS 3 Zrotation Yrotation Xrotation
						End Site
						{
							OFFSET 0.000000 0.000000 0.000000
						}
					}
				}
			}
		}
	}
	JOINT LowerBack
	{
		OFFSET 0.000000 0.000000 0.000000
		CHANNELS 3 Zrotation Yrotation Xrotation
		JOINT Spine
		{
			OFFSET 0.028270 2.035590 -0.193380
			CHANNELS 3 Zrotation Yrotation Xrotation
			JOINT Spine1
			{
				OFFSET 0.056720 2.048850 -0.042750
				CHANNELS 3 Zrotation Yrotation Xrotation
				JOINT Neck
				{
					OFFSET 0.000000 0.000000 0.000000
					CHANNELS 3 Zrotation Yrotation Xrotation
					JOINT Neck1
					{
						OFFSET -0.054170 1.746240 0.172020
						CHANNELS 3 Zrotation Yrotation Xrotation
						JOINT Head
						{
							OFFSET 0.104070 1.761360 -0.123970
							CHANNELS 3 Zrotation Yrotation Xrotation
							End Site
							{
								OFFSET 0.000000 0.000000 0.000000
							}
						}
					}
				}
				JOINT LeftShoulder
				{
					OFFSET 0.000000 0.000000 0.000000
					CHANNELS 3 Zrotation Yrotation Xrotation
					JOINT LeftArm
					{
						OFFSET 3.362410 1.200890 -0.311210
						CHANNELS 3 Zrotation Yrotation Xrotation
						JOINT LeftForeArm
						{
							OFFSET 4.983000 -0.000000 -0.000000
							CHANNELS 3 Zrotation Yrotation Xrotation
							JOINT LeftHand
							{
								OFFSET 3.483560 -0.000000 -0.000000
								CHANNELS 3 Zrotation Yrotation Xrotation
								JOINT LeftFingerBase
								{
									OFFSET 0.000000 0.000000 0.000000
									CHANNELS 3 Zrotation Yrotation Xrotation
									JOINT LeftHandIndex1
									{
										OFFSET 0.715260 -0.000000 -0.000000
										CHANNELS 3 Zrotation Yrotation Xrotation
										End Site
										{
											OFFSET 0.000000 0.000000 0.000000
										}
									}
								}
								JOINT LThumb
								{
									OFFSET 0.000000 0.000000 0.000000
									CHANNELS 3 Zrotation Yrotation Xrotation
									End Site
									{
										OFFSET 0.000000 0.000000 0.000000
									}
								}
							}
						}
					}
				}
				JOINT RightShoulder
				{
					OFFSET 0.000000 0.000000 0.000000
					CHANNELS 3 Zrotation Yrotation Xrotation
					JOINT RightArm
					{
						OFFSET -3.136600 1.374050 -0.404650
						CHANNELS 3 Zrotation Yrotation Xrotation
						JOINT RightForeArm
						{
							OFFSET -5.241900 -0.000000 -0.000000
							CHANNELS 3 Zrotation Yrotation Xrotation
							JOINT RightHand
							{
								OFFSET -3.444170 -0.000000 -0.000000
								CHANNELS 3 Zrotation Yrotation Xrotation
								JOINT RightFingerBase
								{
									OFFSET 0.000000 0.000000 0.000000
									CHANNELS 3 Zrotation Yrotation Xrotation
									JOINT RightHandIndex1
									{
										OFFSET -0.622530 -0.000000 -0.000000
										CHANNELS 3 Zrotation Yrotation Xrotation
										End Site
										{
											OFFSET 0.000000 0.000000 0.000000
										}
									}
								}
								JOINT RThumb
								{
									OFFSET 0.000000 0.000000 0.000000
									CHANNELS 3 Zrotation Yrotation Xrotation
									End Site
									{
										OFFSET 0.000000 0.000000 0.000000
									}
								}
							}
						}
					}
				}
			}
		}
	}
}
MOTION
Frames: 4
Frame Time: 0.008333
1.919023 16.785131 -3.288273 177.408253 41.652775 -158.633141 -9.910370 0.548198 -0.423234 -15.045649 -12.013537 -1.207344 -2.964921 -0.394360 13.143821 -0.836283 -12.421091 -9.595894 0.789100 0.000000 -15.432400 7.365290 0.204243 2.873284 0.750960 14.427807 -44.285159 2.372554 -0.326409 9.961654 1.340428 8.315642 10.150816 2.125300 -0.000001 -37.108600 -1.973155 -1.332456 4.151895 -1.650154 -1.199060 -1.878815 -7.883295 -1.269135 1.259730 4.829166 2.116753 3.736868 -5.862737 -0.466411 2.506909 0.000000 0.000000 0.000000 -11.642112 -5.762761 2.200535 -60.970577 -17.804039 13.492886 -3.416075 -15.833253 -0.008522 6.024553 0.373686 0.015689 -0.044968 0.085774 0.000000 0.000000 0.000000 0.000000 0.000000 0.000000 0.000000 19.709333 -2.291861 -0.453163 65.423346 3.602157 -1.197191 3.260049 20.905127 0.009013 2.557440 6.671253 0.146618 0.060174 -0.035893 0.000000 0.000000 0.000000 0.000000 0.000000 0.000000 0.000000 
2.003310 16.784153 -3.391471 177.561600 41.133473 -158.312402 -10.042341 0.571355 -0.356204 -14.647180 -12.234133 -1.281070 -2.890890 -0.318183 13.698314 -0.855715 -12.605413 -9.168056 0.745700 0.000000 -16.696300 7.288192 0.119609 2.921343 0.619684 14.831270 -44.830015 2.240864 -0.484824 11.601977 1.226627 7.562244 9.957244 1.871401 -0.000000 -35.384100 -1.445741 -1.250945 3.958375 -1.539800 -1.146913 -1.916003 -7.844166 -1.221341 1.301320 4.636697 2.259479 3.679451 -5.904581 -0.468667 2.491531 0.000000 0.000000 0.000000 -11.886977 -5.416441 2.198736 -60.846738 -17.352846 12.259836 -3.366755 -14.478069 -0.009031 6.521922 0.436687 0.020630 -0.035806 0.082874 0.000000 0.000000 0.000000 0.000000 0.000000 0.000000 0.000000 19.656982 -2.153277 -0.455763 65.042505 4.233448 -1.352862 3.287751 20.661440 0.009286 2.392054 6.725523 0.137924 0.062407 -0.037028 0.000000 0.000000 0.000000 0.000000 0.000000 0.000000 0.000000 
2.084152 16.788548 -3.494752 177.768703 40.623759 -157.972317 -10.191385 0.593420 -0.299856 -14.198972 -12.429459 -1.401587 -2.802586 -0.228877 14.325983 -0.874839 -12.775746 -8.622554 0.677700 0.000000 -18.048600 7.188521 0.040484 2.950731 0.586935 15.215151 -45.283103 2.130029 -0.619596 13.168530 1.105576 6.778703 9.493715 1.581600 0.000001 -34.004600 -0.881724 -1.172098 3.800697 -1.422004 -1.098737 -1.947762 -7.803219 -1.177590 1.330798 4.453441 2.467226 3.640599 -5.938696 -0.470468 2.481115 0.000000 0.000000 0.000000 -12.078831 -5.071456 2.196590 -60.767759 -16.912214 10.925467 -3.304146 -13.205128 -0.009600 7.098629 0.465170 0.024272 -0.025903 0.080360 0.000000 0.000000 0.000000 0.000000 0.000000 0.000000 0.000000 19.580454 -1.942448 -0.448915 64.671441 4.900522 -1.641808 3.317189 20.343144 0.009571 2.216145 6.769289 0.128228 0.064822 -0.038466 0.000000 0.000000 0.000000 0.000000 0.000000 0.000000 0.000000 
2.162360 16.798001 -3.597182 178.012233 40.113586 -157.630350 -10.353227 0.616201 -0.257124 -13.709666 -12.583893 -1.569967 -2.702935 -0.126822 15.034242 -0.893901 -12.954935 -7.967487 0.586500 -0.000000 -19.451600 7.071902 -0.032303 2.962830 0.642019 15.578057 -45.608331 2.041912 -0.727540 14.598886 0.977971 5.977818 8.795722 1.273799 0.000000 -32.963600 -0.298959 -1.099799 3.683172 -1.300032 -1.057245 -1.972299 -7.759589 -1.140377 1.350725 4.288949 2.723255 3.617603 -5.963793 -0.471737 2.475071 0.000000 0.000000 0.000000 -12.199249 -4.731692 2.192959 -60.737150 -16.476570 9.547681 -3.230965 -12.034884 -0.010181 7.731366 0.454468 0.025717 -0.015668 0.077962 0.000000 0.000000 0.000000 0.000000 0.000000 0.000000 0.000000 19.485105 -1.677678 -0.434349 64.316727 5.614225 -2.033258 3.346857 19.950883 0.009857 2.025597 6.803503 0.117334 0.067393 -0.040160 0.000000 0.000000 0.000000 0.000000 0.000000 0.000000 0.000000 
